<svg xmlns="http://www.w3.org/2000/svg" xmlns:xlink="http://www.w3.org/1999/xlink" width="121" height="122" viewBox="0 0 121 122">
  <defs>
    <clipPath id="clip-path">
      <rect id="Rectangle_141" data-name="Rectangle 141" width="121" height="122" transform="translate(0.065 -0.266)" fill="#fff" stroke="#707070" stroke-width="1"/>
    </clipPath>
  </defs>
  <g id="Mask_Group_34" data-name="Mask Group 34" transform="translate(-0.065 0.266)" clip-path="url(#clip-path)">
    <g id="design" transform="translate(0 0)">
      <path id="Path_393" data-name="Path 393" d="M71.257,66.2a2.568,2.568,0,0,1-.911-.167L37.453,53.378a2.534,2.534,0,0,1,0-4.727L70.346,36a2.554,2.554,0,0,1,1.817,0l32.894,12.651a2.533,2.533,0,0,1,.005,4.727L72.168,66.03A2.568,2.568,0,0,1,71.257,66.2ZM45.413,51.015l25.844,9.939L97.1,51.015,71.257,41.076Z" transform="translate(-10.531 -10.531)" fill="#fff"/>
      <path id="Path_394" data-name="Path 394" d="M71.257,111.946a2.568,2.568,0,0,1-.911-.167L37.453,99.128a2.529,2.529,0,0,1-1.619-2.363V56.28a2.53,2.53,0,1,1,5.061,0V95.029l30.363,11.68,30.363-11.68V56.28a2.53,2.53,0,1,1,5.061,0V96.765a2.529,2.529,0,0,1-1.619,2.363L72.168,111.779A2.568,2.568,0,0,1,71.257,111.946Z" transform="translate(-10.531 -15.796)" fill="#fff"/>
      <path id="Path_395" data-name="Path 395" d="M84.947,117.212a2.531,2.531,0,0,1-2.53-2.53V74.2a2.53,2.53,0,1,1,5.061,0v40.484A2.531,2.531,0,0,1,84.947,117.212Z" transform="translate(-24.22 -21.061)" fill="#fff"/>
      <path id="Path_396" data-name="Path 396" d="M2.53,40.484A2.531,2.531,0,0,1,0,37.954v-25.3A12.666,12.666,0,0,1,12.651,0h25.3a2.53,2.53,0,1,1,0,5.061h-25.3a7.6,7.6,0,0,0-7.591,7.591v25.3A2.531,2.531,0,0,1,2.53,40.484Z" fill="#fff"/>
      <path id="Path_397" data-name="Path 397" d="M142.5,155.151H117.2a2.53,2.53,0,1,1,0-5.061h25.3a7.6,7.6,0,0,0,7.591-7.591V117.2a2.53,2.53,0,1,1,5.061,0v25.3A12.666,12.666,0,0,1,142.5,155.151Z" transform="translate(-33.698 -33.698)" fill="#fff"/>
      <path id="Path_398" data-name="Path 398" d="M152.621,40.484a2.531,2.531,0,0,1-2.53-2.53v-25.3A7.6,7.6,0,0,0,142.5,5.061H117.2A2.53,2.53,0,1,1,117.2,0h25.3a12.666,12.666,0,0,1,12.651,12.651v25.3A2.531,2.531,0,0,1,152.621,40.484Z" transform="translate(-33.698)" fill="#fff"/>
      <path id="Path_399" data-name="Path 399" d="M37.954,155.151h-25.3A12.666,12.666,0,0,1,0,142.5V117.2a2.53,2.53,0,1,1,5.061,0v25.3a7.6,7.6,0,0,0,7.591,7.591h25.3a2.53,2.53,0,0,1,0,5.061Z" transform="translate(0 -33.698)" fill="#fff"/>
    </g>
  </g>
</svg>
