<svg xmlns="http://www.w3.org/2000/svg" xmlns:xlink="http://www.w3.org/1999/xlink" width="122" height="122" viewBox="0 0 122 122">
  <defs>
    <clipPath id="clip-path">
      <rect id="Rectangle_141" data-name="Rectangle 141" width="122" height="122" transform="translate(-0.062 -0.266)" fill="#fff" stroke="#707070" stroke-width="1"/>
    </clipPath>
  </defs>
  <g id="XMLID_2047_" transform="translate(20 30)">
    <path id="cap" d="M81.2,15.244,55.272,5.361A1.218,1.218,0,1,0,54.4,7.636l22.94,8.746L61.465,22.437,41.492,13.394a1.218,1.218,0,0,0-1,2.219l17.771,8.047L40.99,30.243,4.635,16.382,40.99,2.521l8.959,3.416a1.218,1.218,0,1,0,.868-2.275L41.424.08a1.218,1.218,0,0,0-.868,0L.783,15.244A1.219,1.219,0,0,0,0,16.382v5.56A1.219,1.219,0,0,0,.783,23.08L13.2,27.815v4.219a1.217,1.217,0,1,0,2.435,0V28.744l24.918,9.5a1.217,1.217,0,0,0,.868,0l18.783-7.161V50.352A41.253,41.253,0,0,1,15.638,46.4V36.9a1.217,1.217,0,1,0-2.435,0V46.994a1.217,1.217,0,0,0,.456.95,43.681,43.681,0,0,0,46.548,5.137v4.928a4.626,4.626,0,1,0,2.435,0V51.8a43.4,43.4,0,0,0,5.68-3.851,1.217,1.217,0,0,0,.457-.95V27.814L81.2,23.079a1.217,1.217,0,0,0,.784-1.138v-5.56a1.219,1.219,0,0,0-.784-1.138ZM63.615,62.472a2.191,2.191,0,1,1-2.192-2.192A2.194,2.194,0,0,1,63.615,62.472ZM2.434,18.149,39.772,32.385v2.953L2.434,21.1ZM42.208,35.338V32.385l18-6.863v2.954ZM66.342,46.4a40.787,40.787,0,0,1-3.7,2.563V30.154l3.7-1.411Zm-3.7-18.856V24.594l16.9-6.445V21.1Zm0,0" transform="translate(0.001 0)" fill="#fff"/>
  </g>
  <g id="Mask_Group_34" data-name="Mask Group 34" transform="translate(0.062 0.266)" clip-path="url(#clip-path)">
    <g id="design" transform="translate(0 0)">
      <path id="Path_396" data-name="Path 396" d="M2.53,40.484A2.531,2.531,0,0,1,0,37.954v-25.3A12.666,12.666,0,0,1,12.651,0h25.3a2.53,2.53,0,1,1,0,5.061h-25.3a7.6,7.6,0,0,0-7.591,7.591v25.3A2.531,2.531,0,0,1,2.53,40.484Z" fill="#fff"/>
      <path id="Path_397" data-name="Path 397" d="M142.5,155.151H117.2a2.53,2.53,0,1,1,0-5.061h25.3a7.6,7.6,0,0,0,7.591-7.591V117.2a2.53,2.53,0,1,1,5.061,0v25.3A12.666,12.666,0,0,1,142.5,155.151Z" transform="translate(-33.698 -33.698)" fill="#fff"/>
      <path id="Path_398" data-name="Path 398" d="M152.621,40.484a2.531,2.531,0,0,1-2.53-2.53v-25.3A7.6,7.6,0,0,0,142.5,5.061H117.2A2.53,2.53,0,1,1,117.2,0h25.3a12.666,12.666,0,0,1,12.651,12.651v25.3A2.531,2.531,0,0,1,152.621,40.484Z" transform="translate(-33.698)" fill="#fff"/>
      <path id="Path_399" data-name="Path 399" d="M37.954,155.151h-25.3A12.666,12.666,0,0,1,0,142.5V117.2a2.53,2.53,0,1,1,5.061,0v25.3a7.6,7.6,0,0,0,7.591,7.591h25.3a2.53,2.53,0,0,1,0,5.061Z" transform="translate(0 -33.698)" fill="#fff"/>
    </g>
  </g>
</svg>
