<svg xmlns="http://www.w3.org/2000/svg" xmlns:xlink="http://www.w3.org/1999/xlink" width="121" height="122" viewBox="0 0 121 122">
  <defs>
    <clipPath id="clip-path">
      <rect id="Rectangle_141" data-name="Rectangle 141" width="121" height="122" transform="translate(0.261 -0.266)" fill="#fff" stroke="#707070" stroke-width="1"/>
    </clipPath>
  </defs>
  <g id="XMLID_2047_" transform="translate(23 23)">
    <path id="XMLID_2053_" d="M74.673,37.292A1.456,1.456,0,0,0,73.889,36L59.844,28.692l14.045-7.308a1.456,1.456,0,0,0,0-2.583l-12.1-6.294a1.456,1.456,0,1,0-1.344,2.583l9.615,5-32.662,17-32.662-17L37.4,3.1,48.824,9.042a1.456,1.456,0,1,0,1.344-2.583L38.072.165a1.456,1.456,0,0,0-1.344,0L.911,18.8a1.456,1.456,0,0,0,0,2.583l14.045,7.308L.911,36a1.456,1.456,0,0,0,0,2.583l14.045,7.308L.911,53.2a1.456,1.456,0,0,0,0,2.583L36.728,74.418a1.456,1.456,0,0,0,1.344,0L73.889,55.782a1.456,1.456,0,0,0,0-2.583L59.844,45.891l14.045-7.308A1.456,1.456,0,0,0,74.673,37.292Zm-36.6,2.729L56.69,30.333l4.341,2.259L28.42,49.614l-5.81-3.023,13.373-6.958.745.387a1.456,1.456,0,0,0,1.344,0Zm-5.243-2.029L19.456,44.95l-5.782-3.008,13.373-6.958ZM18.11,30.333l5.782,3.009L10.519,40.3,4.737,37.291ZM70.062,54.49l-32.662,17-32.662-17L18.11,47.532,36.728,57.22a1.456,1.456,0,0,0,1.344,0L56.69,47.532Zm-32.662-.2-5.829-3.033L64.182,34.232l5.881,3.06Z" transform="translate(-0.127 0)" fill="#fff"/>
    <path id="XMLID_2078_" d="M370.583,66.912a1.457,1.457,0,1,0-1.029-.427A1.466,1.466,0,0,0,370.583,66.912Z" transform="translate(-315.402 -54.682)" fill="#fff"/>
  </g>
  <g id="Mask_Group_34" data-name="Mask Group 34" transform="translate(-0.261 0.266)" clip-path="url(#clip-path)">
    <g id="design" transform="translate(0 0)">
      <path id="Path_396" data-name="Path 396" d="M2.53,40.484A2.531,2.531,0,0,1,0,37.954v-25.3A12.666,12.666,0,0,1,12.651,0h25.3a2.53,2.53,0,1,1,0,5.061h-25.3a7.6,7.6,0,0,0-7.591,7.591v25.3A2.531,2.531,0,0,1,2.53,40.484Z" fill="#fff"/>
      <path id="Path_397" data-name="Path 397" d="M142.5,155.151H117.2a2.53,2.53,0,1,1,0-5.061h25.3a7.6,7.6,0,0,0,7.591-7.591V117.2a2.53,2.53,0,1,1,5.061,0v25.3A12.666,12.666,0,0,1,142.5,155.151Z" transform="translate(-33.698 -33.698)" fill="#fff"/>
      <path id="Path_398" data-name="Path 398" d="M152.621,40.484a2.531,2.531,0,0,1-2.53-2.53v-25.3A7.6,7.6,0,0,0,142.5,5.061H117.2A2.53,2.53,0,1,1,117.2,0h25.3a12.666,12.666,0,0,1,12.651,12.651v25.3A2.531,2.531,0,0,1,152.621,40.484Z" transform="translate(-33.698)" fill="#fff"/>
      <path id="Path_399" data-name="Path 399" d="M37.954,155.151h-25.3A12.666,12.666,0,0,1,0,142.5V117.2a2.53,2.53,0,1,1,5.061,0v25.3a7.6,7.6,0,0,0,7.591,7.591h25.3a2.53,2.53,0,0,1,0,5.061Z" transform="translate(0 -33.698)" fill="#fff"/>
    </g>
  </g>
</svg>
